# xmcd
#
# Track frame offsets:
#	187
#	41587
#	77260
#	120277
#	135702
#
# Disc length: 2025 seconds
# Revision: 0
# Processed by: cddbd v1.5.2PL0 Copyright (c) Steve Scherf et al.
# Submitted via: dBpowerAMP V12.0
#
DISCID=3007e705
DTITLE=C+C Music Factory feat. A.S.K. M.E. and Vic Black with Greg Nice and Charlie Brown - Don't Stop The Music [Remix]
DYEAR=1996
DGENRE=House
TTITLE0=Don't Stop The Music [Joey Musaphia's Unstoppable Vocal Mix]
TTITLE1=Don't Stop The Music [Joey Musaphia's Non Stop Dub]
TTITLE2=Don't Stop The Music [K-Klassic Mix]
TTITLE3=I'll Always Be Around [Hip Hop Junkie's Remix Radio Edit]
TTITLE4=I'll Always Be Around [The Ghetto Remix Radio Edit]
EXTD=
EXTT0=
EXTT1=
EXTT2=
EXTT3=
EXTT4=
PLAYORDER=
